{"title":"Dream House 2011 DVDrip English Klam","uid":7125873,"size":1099657086,"categoryP":"video","categoryS":"movies","magnet":"?xt=urn:btih:187f59a6767561e83a88c86274a3375735737100&amp;dn=Dream+House+2011+DVDrip+English+Klam&amp;tr=udp%3A%2F%2Ftracker.openbittorrent.com%3A80&amp;tr=udp%3A%2F%2Fopen.demonii.com%3A1337&amp;tr=udp%3A%2F%2Ftracker.coppersurfer.tk%3A6969&amp;tr=udp%3A%2F%2Fexodus.desync.com%3A6969","seeders":1,"leechers":0,"uploader":"Klambake","files":-1,"time":1332531199,"description":"With: Daniel Craig, Rachel Weisz and Naomi Watts\n\nDe succesvolle uitgever Will Atenton (Daniel Craig) stopt met zijn baan in New York om, samen met zijn vrouw Libby (Rachel Weisz) en twee dochters, te verhuizen naar een schilderachtig dorpje in New England. Maar dan komen ze erachter dat in hun perfecte huis een moeder en haar kinderen zijn vermoord. Het hele dorp is van mening dat haar man, de enige overlevende, de dader is. Wanneer Will deze tragedie onderzoekt, komt zijn enige aanwijzing van Ann Paterson (Naomi Watts). Zij is een buurvrouw die goed bevriend was met de familie. Will en Ann proberen samen het verontrustende mysterie op te lossen.\n\nSoon after moving into their seemingly idyllic new home, a family learns of a brutal crime committed against former residents of the dwelling. \n\n------------------------ Dutch Friends ------------------------\n---------------------------------------------------------------\n- Bezoek ook eens mijn vrienden op: &lt;a href=&quot; http://www.Film-Test.nl&quot; rel=&quot;nofollow&quot; target=&quot;_NEW&quot;&gt; http://www.Film-Test.nl&lt;/a&gt; --\n----- voor mijn Nederlandse Sync. ondertitels ---- en meer ----\n------- http://www.Film-Test.nl ---- voor Films en meer -------\n---------------------------------------------------------------\n\nGeneral:\n\nComplete name                    : Dream HouseDream House.avi\nFormat                           : AVI\nFormat/Info                      : Audio Video Interleave\nFile size                        : 1.02 GiB\nDuration                         : 1h 28mn\nOverall bit rate                 : 1 664 Kbps\n\nVideo:\n\nFormat                           : MPEG-4 Visual\nFormat profile                   : Simple@L3\nFormat settings, BVOP            : No\nFormat settings, QPel            : No\nFormat settings, GMC             : No warppoints\nFormat settings, Matrix          : Default (H.263)\nCodec ID                         : XVID\nCodec ID/Hint                    : XviD\nDuration                         : 1h 28mn\nBit rate                         : 1 206 Kbps\nWidth                            : 720 pixels\nHeight                           : 304 pixels\nDisplay aspect ratio             : 2.35:1\nFrame rate                       : 25.000 fps\nColor space                      : YUV\nChroma subsampling               : 4:2:0\nBit depth                        : 8 bits\nScan type                        : Progressive\nCompression mode                 : Lossy\nBits/(Pixel*Frame)               : 0.220\nStream size                      : 759 MiB (72%)\nWriting library                  : XviD 1.1.2 (UTC 2006-11-01)\n\nAudio:\n\nFormat                           : AC-3\nFormat/Info                      : Audio Coding 3\nMode extension                   : CM (complete main)\nCodec ID                         : 2000\nDuration                         : 1h 28mn\nBit rate mode                    : Constant\nBit rate                         : 448 Kbps\nChannel(s)                       : 6 channels\nChannel positions                : Front: L C R, Side: L R, LFE\nSampling rate                    : 48.0 KHz\nBit depth                        : 16 bits\nCompression mode                 : Lossy\nStream size                      : 282 MiB (27%)\nAlignment                        : Aligned on interleaves\nInterleave, duration             : 32 ms (0.80 video frame)\nInterleave, preload duration     : 288 ms\n\n\n","torrent":{"xt":"urn:btih:187f59a6767561e83a88c86274a3375735737100","amp;dn":"Dream+House+2011+DVDrip+English+Klam","amp;tr":["udp%3A%2F%2Ftracker.openbittorrent.com%3A80","udp%3A%2F%2Fopen.demonii.com%3A1337","udp%3A%2F%2Ftracker.coppersurfer.tk%3A6969","udp%3A%2F%2Fexodus.desync.com%3A6969"],"infoHash":"187f59a6767561e83a88c86274a3375735737100","infoHashBuffer":{"type":"Buffer","data":[24,127,89,166,118,117,97,232,58,136,200,98,116,163,55,87,53,115,113,0]},"announce":[],"urlList":[]}}